<svg width="22" height="14" viewBox="0 0 22 14" fill="none" xmlns="http://www.w3.org/2000/svg">
<path d="M1.484 13C1.136 13 0.86 12.904 0.656 12.712C0.464 12.52 0.368 12.25 0.368 11.902V1.408C0.368 1.06 0.464 0.789999 0.656 0.598C0.86 0.405999 1.136 0.309999 1.484 0.309999H7.982C8.33 0.309999 8.6 0.387999 8.792 0.543999C8.984 0.7 9.08 0.922 9.08 1.21C9.08 1.51 8.984 1.744 8.792 1.912C8.6 2.068 8.33 2.146 7.982 2.146H2.636V5.638H7.622C7.97 5.638 8.24 5.716 8.432 5.872C8.624 6.028 8.72 6.256 8.72 6.556C8.72 6.844 8.624 7.066 8.432 7.222C8.24 7.378 7.97 7.456 7.622 7.456H2.636V11.164H7.982C8.33 11.164 8.6 11.248 8.792 11.416C8.984 11.572 9.08 11.8 9.08 12.1C9.08 12.388 8.984 12.61 8.792 12.766C8.6 12.922 8.33 13 7.982 13H1.484ZM20.5796 0.219999C20.9156 0.219999 21.1796 0.327999 21.3716 0.543999C21.5756 0.748 21.6776 1.024 21.6776 1.372V11.938C21.6776 12.286 21.5756 12.568 21.3716 12.784C21.1676 13 20.9036 13.108 20.5796 13.108C20.1956 13.108 19.9016 12.97 19.6976 12.694L13.1276 4.144V11.938C13.1276 12.286 13.0316 12.568 12.8396 12.784C12.6476 13 12.3836 13.108 12.0476 13.108C11.7116 13.108 11.4476 13 11.2556 12.784C11.0636 12.568 10.9676 12.286 10.9676 11.938V1.372C10.9676 1.024 11.0696 0.748 11.2736 0.543999C11.4776 0.327999 11.7476 0.219999 12.0836 0.219999C12.4556 0.219999 12.7436 0.357999 12.9476 0.633999L19.4996 9.148V1.372C19.4996 1.024 19.5956 0.748 19.7876 0.543999C19.9916 0.327999 20.2556 0.219999 20.5796 0.219999Z" fill="#333333"/>
</svg>
