<svg width="100" height="59" viewBox="0 0 100 59" fill="none" xmlns="http://www.w3.org/2000/svg">
<rect width="100" height="59" rx="18" fill="#FFF5E9"/>
<path d="M23.4166 22.14L23.3518 25.93C23.3425 26.45 23.6481 27.14 24.037 27.45L26.3333 29.33C27.8055 30.53 27.5648 32 25.8055 32.6L22.8148 33.61C22.3148 33.78 21.787 34.37 21.6574 34.92L20.9444 37.86C20.3796 40.18 18.9722 40.41 17.8055 38.37L16.1759 35.52C15.8796 35 15.1759 34.61 14.6203 34.64L11.5278 34.81C9.3148 34.93 8.68516 33.55 10.1296 31.73L11.9629 29.43C12.3055 29 12.4629 28.2 12.3055 27.66L11.3704 24.43C10.8241 22.53 11.8055 21.48 13.5555 22.1L16.287 23.07C16.75 23.23 17.4444 23.12 17.8333 22.81L20.6852 20.59C22.2222 19.39 23.4537 20.09 23.4166 22.14Z" stroke="#FF951D" stroke-width="1.5" stroke-linecap="round" stroke-linejoin="round"/>
<path opacity="0.4" d="M27.6943 40L24.8888 36.97" stroke="#FF951D" stroke-width="1.5" stroke-linecap="round" stroke-linejoin="round"/>
<path d="M44.387 22.668C44.667 22.668 44.877 22.7287 45.017 22.85C45.157 22.9713 45.227 23.144 45.227 23.368C45.227 23.8347 44.947 24.068 44.387 24.068H43.673V25.174C43.673 25.4633 43.589 25.6873 43.421 25.846C43.2623 26.0047 43.0523 26.084 42.791 26.084C42.5297 26.084 42.315 26.0047 42.147 25.846C41.9883 25.6873 41.909 25.4633 41.909 25.174V24.068H38.241C37.989 24.068 37.793 23.998 37.653 23.858C37.513 23.7087 37.443 23.5267 37.443 23.312C37.443 23.088 37.5177 22.8733 37.667 22.668L41.993 16.452C42.0863 16.3213 42.203 16.2233 42.343 16.158C42.483 16.0833 42.6277 16.046 42.777 16.046C43.0197 16.046 43.2297 16.1253 43.407 16.284C43.5843 16.4427 43.673 16.6667 43.673 16.956V22.668H44.387ZM41.909 22.668V18.902L39.305 22.668H41.909ZM47.1675 26.084C46.8689 26.084 46.6215 25.986 46.4255 25.79C46.2295 25.5847 46.1315 25.3327 46.1315 25.034C46.1315 24.7353 46.2295 24.488 46.4255 24.292C46.6215 24.0867 46.8689 23.984 47.1675 23.984C47.4662 23.984 47.7135 24.0867 47.9095 24.292C48.1055 24.488 48.2035 24.7353 48.2035 25.034C48.2035 25.3327 48.1055 25.5847 47.9095 25.79C47.7135 25.986 47.4662 26.084 47.1675 26.084ZM55.8762 24.544C56.4362 24.544 56.7162 24.782 56.7162 25.258C56.7162 25.7527 56.4362 26 55.8762 26H50.5562C50.3135 26 50.1222 25.93 49.9822 25.79C49.8422 25.6407 49.7722 25.4587 49.7722 25.244C49.7722 24.964 49.8795 24.712 50.0942 24.488L53.2862 21.058C53.6782 20.6287 53.9628 20.2367 54.1402 19.882C54.3268 19.518 54.4202 19.1587 54.4202 18.804C54.4202 18.3653 54.2942 18.0293 54.0422 17.796C53.7902 17.5627 53.4308 17.446 52.9642 17.446C52.5815 17.446 52.2082 17.5207 51.8442 17.67C51.4895 17.81 51.1302 18.006 50.7662 18.258C50.6728 18.3233 50.5795 18.3793 50.4862 18.426C50.3928 18.4633 50.2995 18.482 50.2062 18.482C50.0475 18.482 49.9075 18.4073 49.7862 18.258C49.6742 18.1087 49.6182 17.9313 49.6182 17.726C49.6182 17.586 49.6415 17.4647 49.6882 17.362C49.7442 17.2593 49.8282 17.1613 49.9402 17.068C50.3508 16.7413 50.8315 16.4847 51.3822 16.298C51.9328 16.102 52.4835 16.004 53.0342 16.004C53.9955 16.004 54.7608 16.2467 55.3302 16.732C55.9088 17.2173 56.1982 17.8707 56.1982 18.692C56.1982 19.2613 56.0768 19.798 55.8342 20.302C55.5915 20.7967 55.1808 21.352 54.6022 21.968L52.1802 24.544H55.8762Z" fill="#363333"/>
<path d="M63.2032 27.64C62.4965 26.2867 62.1432 24.8633 62.1432 23.37C62.1432 21.8767 62.4965 20.4533 63.2032 19.1C63.2898 18.9467 63.4065 18.87 63.5532 18.87C63.6332 18.87 63.6998 18.8967 63.7532 18.95C63.8132 19.0033 63.8432 19.07 63.8432 19.15C63.8432 19.1967 63.8332 19.2467 63.8132 19.3C63.2532 20.62 62.9732 21.9767 62.9732 23.37C62.9732 24.7633 63.2532 26.12 63.8132 27.44C63.8332 27.5 63.8432 27.55 63.8432 27.59C63.8432 27.6767 63.8132 27.7433 63.7532 27.79C63.6998 27.8433 63.6332 27.87 63.5532 27.87C63.4065 27.87 63.2898 27.7933 63.2032 27.64ZM71.7558 25.31C71.8758 25.31 71.9691 25.34 72.0358 25.4C72.1025 25.46 72.1358 25.5433 72.1358 25.65C72.1358 25.7633 72.1025 25.85 72.0358 25.91C71.9758 25.97 71.8825 26 71.7558 26H68.4458C68.3191 26 68.2225 25.97 68.1558 25.91C68.0958 25.85 68.0658 25.7633 68.0658 25.65C68.0658 25.5433 68.0991 25.46 68.1658 25.4C68.2325 25.34 68.3258 25.31 68.4458 25.31H69.6858V19.95L68.5958 20.66C68.5425 20.6933 68.4891 20.71 68.4358 20.71C68.3425 20.71 68.2591 20.6667 68.1858 20.58C68.1191 20.4933 68.0858 20.4 68.0858 20.3C68.0858 20.16 68.1391 20.06 68.2458 20L69.7658 19.01C69.8791 18.9367 69.9958 18.9 70.1158 18.9C70.2291 18.9 70.3225 18.9367 70.3958 19.01C70.4691 19.0833 70.5058 19.1867 70.5058 19.32V25.31H71.7558ZM76.1019 21.58C76.5486 21.58 76.9386 21.6733 77.2719 21.86C77.6119 22.0467 77.8719 22.31 78.0519 22.65C78.2386 22.9833 78.3319 23.37 78.3319 23.81C78.3319 24.25 78.2319 24.6433 78.0319 24.99C77.8319 25.33 77.5519 25.5967 77.1919 25.79C76.8386 25.9767 76.4286 26.07 75.9619 26.07C75.5486 26.07 75.1452 25.9967 74.7519 25.85C74.3586 25.7033 74.0252 25.5033 73.7519 25.25C73.6452 25.15 73.5919 25.0367 73.5919 24.91C73.5919 24.81 73.6186 24.7267 73.6719 24.66C73.7252 24.5933 73.7886 24.56 73.8619 24.56C73.9552 24.56 74.0486 24.5967 74.1419 24.67C74.4352 24.91 74.7286 25.09 75.0219 25.21C75.3152 25.3233 75.6219 25.38 75.9419 25.38C76.4352 25.38 76.8219 25.24 77.1019 24.96C77.3819 24.68 77.5219 24.3 77.5219 23.82C77.5219 23.3533 77.3819 22.9767 77.1019 22.69C76.8219 22.4033 76.4452 22.26 75.9719 22.26C75.3652 22.26 74.8719 22.4933 74.4919 22.96C74.3986 23.06 74.2852 23.11 74.1519 23.11C74.0586 23.11 73.9786 23.0833 73.9119 23.03C73.8519 22.97 73.8219 22.89 73.8219 22.79V19.34C73.8219 19.2267 73.8552 19.1333 73.9219 19.06C73.9952 18.9867 74.0952 18.95 74.2219 18.95H77.7419C77.8619 18.95 77.9552 18.98 78.0219 19.04C78.0952 19.1 78.1319 19.1833 78.1319 19.29C78.1319 19.3967 78.0952 19.48 78.0219 19.54C77.9552 19.6 77.8619 19.63 77.7419 19.63H74.6319V22.14C74.8186 21.96 75.0352 21.8233 75.2819 21.73C75.5352 21.63 75.8086 21.58 76.1019 21.58ZM82.4661 27.64C82.3795 27.7933 82.2595 27.87 82.1061 27.87C82.0261 27.87 81.9561 27.8433 81.8961 27.79C81.8428 27.7433 81.8161 27.68 81.8161 27.6C81.8161 27.5733 81.8295 27.52 81.8561 27.44C82.4095 26.1133 82.6861 24.7567 82.6861 23.37C82.6861 21.9833 82.4095 20.6267 81.8561 19.3C81.8295 19.22 81.8161 19.1667 81.8161 19.14C81.8161 19.06 81.8428 18.9967 81.8961 18.95C81.9561 18.8967 82.0261 18.87 82.1061 18.87C82.2595 18.87 82.3795 18.9467 82.4661 19.1C83.1661 20.46 83.5161 21.8833 83.5161 23.37C83.5161 24.8567 83.1661 26.28 82.4661 27.64Z" fill="#828282"/>
<path d="M44.537 43.388C44.593 43.476 44.621 43.568 44.621 43.664C44.621 43.784 44.573 43.884 44.477 43.964C44.389 44.036 44.285 44.072 44.165 44.072C43.981 44.072 43.837 43.992 43.733 43.832L42.125 41.288C41.917 40.96 41.701 40.736 41.477 40.616C41.253 40.488 40.949 40.424 40.565 40.424H39.053V43.556C39.053 43.708 39.009 43.832 38.921 43.928C38.833 44.016 38.717 44.06 38.573 44.06C38.421 44.06 38.301 44.016 38.213 43.928C38.125 43.832 38.081 43.708 38.081 43.556V36.02C38.081 35.876 38.125 35.76 38.213 35.672C38.309 35.584 38.433 35.54 38.585 35.54H41.561C42.481 35.54 43.181 35.744 43.661 36.152C44.149 36.56 44.393 37.16 44.393 37.952C44.393 38.624 44.197 39.164 43.805 39.572C43.421 39.98 42.869 40.228 42.149 40.316C42.349 40.38 42.529 40.484 42.689 40.628C42.849 40.772 43.009 40.972 43.169 41.228L44.537 43.388ZM41.477 39.608C42.133 39.608 42.621 39.472 42.941 39.2C43.269 38.928 43.433 38.516 43.433 37.964C43.433 37.42 43.273 37.016 42.953 36.752C42.633 36.488 42.141 36.356 41.477 36.356H39.053V39.608H41.477ZM48.5398 38.012C50.0038 38.012 50.7358 38.78 50.7358 40.316V43.58C50.7358 43.724 50.6918 43.84 50.6038 43.928C50.5238 44.016 50.4118 44.06 50.2678 44.06C50.1238 44.06 50.0078 44.016 49.9198 43.928C49.8318 43.84 49.7878 43.724 49.7878 43.58V43.004C49.6358 43.348 49.4038 43.616 49.0918 43.808C48.7798 43.992 48.4198 44.084 48.0118 44.084C47.6358 44.084 47.2878 44.008 46.9678 43.856C46.6558 43.704 46.4078 43.492 46.2238 43.22C46.0398 42.948 45.9478 42.648 45.9478 42.32C45.9478 41.88 46.0598 41.54 46.2838 41.3C46.5078 41.052 46.8758 40.876 47.3878 40.772C47.8998 40.66 48.6118 40.604 49.5238 40.604H49.7878V40.208C49.7878 39.728 49.6878 39.376 49.4878 39.152C49.2958 38.928 48.9798 38.816 48.5398 38.816C47.9958 38.816 47.4438 38.964 46.8838 39.26C46.6678 39.396 46.5158 39.464 46.4278 39.464C46.3318 39.464 46.2518 39.428 46.1878 39.356C46.1238 39.284 46.0918 39.192 46.0918 39.08C46.0918 38.968 46.1238 38.872 46.1878 38.792C46.2598 38.704 46.3718 38.616 46.5238 38.528C46.8038 38.368 47.1198 38.244 47.4718 38.156C47.8318 38.06 48.1878 38.012 48.5398 38.012ZM48.1438 43.316C48.6238 43.316 49.0158 43.156 49.3198 42.836C49.6318 42.508 49.7878 42.088 49.7878 41.576V41.228H49.5718C48.8678 41.228 48.3318 41.26 47.9638 41.324C47.5958 41.38 47.3318 41.48 47.1718 41.624C47.0198 41.76 46.9438 41.964 46.9438 42.236C46.9438 42.548 47.0558 42.808 47.2798 43.016C47.5118 43.216 47.7998 43.316 48.1438 43.316ZM55.2151 43.292C55.4951 43.316 55.6351 43.444 55.6351 43.676C55.6351 43.812 55.5831 43.916 55.4791 43.988C55.3831 44.052 55.2351 44.076 55.0351 44.06L54.7111 44.036C54.0711 43.988 53.5991 43.796 53.2951 43.46C52.9911 43.124 52.8391 42.616 52.8391 41.936V38.924H52.0351C51.8991 38.924 51.7911 38.892 51.7111 38.828C51.6391 38.756 51.6031 38.664 51.6031 38.552C51.6031 38.432 51.6391 38.336 51.7111 38.264C51.7911 38.192 51.8991 38.156 52.0351 38.156H52.8391V36.8C52.8391 36.648 52.8831 36.532 52.9711 36.452C53.0591 36.364 53.1791 36.32 53.3311 36.32C53.4751 36.32 53.5911 36.364 53.6791 36.452C53.7671 36.532 53.8111 36.648 53.8111 36.8V38.156H55.1431C55.2711 38.156 55.3711 38.192 55.4431 38.264C55.5231 38.336 55.5631 38.432 55.5631 38.552C55.5631 38.664 55.5231 38.756 55.4431 38.828C55.3711 38.892 55.2711 38.924 55.1431 38.924H53.8111V41.984C53.8111 42.424 53.8991 42.744 54.0751 42.944C54.2591 43.136 54.5311 43.244 54.8911 43.268L55.2151 43.292ZM61.1172 42.644C61.2052 42.644 61.2812 42.68 61.3452 42.752C61.4092 42.824 61.4412 42.916 61.4412 43.028C61.4412 43.228 61.3012 43.412 61.0212 43.58C60.7332 43.748 60.4292 43.876 60.1092 43.964C59.7892 44.044 59.4772 44.084 59.1732 44.084C58.2692 44.084 57.5532 43.816 57.0252 43.28C56.5052 42.744 56.2452 42.004 56.2452 41.06C56.2452 40.46 56.3612 39.932 56.5932 39.476C56.8252 39.012 57.1492 38.652 57.5652 38.396C57.9892 38.14 58.4692 38.012 59.0052 38.012C59.7652 38.012 60.3692 38.26 60.8172 38.756C61.2652 39.252 61.4892 39.924 61.4892 40.772C61.4892 40.932 61.4572 41.048 61.3932 41.12C61.3292 41.192 61.2252 41.228 61.0812 41.228H57.2172C57.2892 42.604 57.9412 43.292 59.1732 43.292C59.4852 43.292 59.7532 43.252 59.9772 43.172C60.2012 43.084 60.4412 42.968 60.6972 42.824C60.9052 42.704 61.0452 42.644 61.1172 42.644ZM59.0172 38.768C58.5052 38.768 58.0932 38.928 57.7812 39.248C57.4772 39.568 57.2972 40.02 57.2412 40.604H60.6372C60.6212 40.012 60.4732 39.56 60.1932 39.248C59.9132 38.928 59.5212 38.768 59.0172 38.768Z" fill="#FF951D"/>
</svg>
