<svg width="100" height="59" viewBox="0 0 100 59" fill="none" xmlns="http://www.w3.org/2000/svg">
<rect width="100" height="59" rx="18" fill="#FFF5E9"/>
<path d="M15.8888 28.87C15.7962 28.86 15.6851 28.86 15.5832 28.87C13.3795 28.79 11.6295 26.84 11.6295 24.44C11.6295 21.99 13.4628 20 15.7406 20C18.0091 20 19.8517 21.99 19.8517 24.44C19.8425 26.84 18.0925 28.79 15.8888 28.87Z" stroke="#FF951D" stroke-width="1.5" stroke-linecap="round" stroke-linejoin="round"/>
<path opacity="0.4" d="M22.6018 22C24.3981 22 25.8426 23.57 25.8426 25.5C25.8426 27.39 24.4537 28.93 22.7222 29C22.6481 28.99 22.5648 28.99 22.4814 29" stroke="#FF951D" stroke-width="1.5" stroke-linecap="round" stroke-linejoin="round"/>
<path d="M11.2592 32.56C9.01843 34.18 9.01843 36.82 11.2592 38.43C13.8055 40.27 17.9814 40.27 20.5277 38.43C22.7684 36.81 22.7684 34.17 20.5277 32.56C17.9907 30.73 13.8147 30.73 11.2592 32.56Z" stroke="#FF951D" stroke-width="1.5" stroke-linecap="round" stroke-linejoin="round"/>
<path opacity="0.4" d="M24.3888 38C25.0555 37.85 25.6851 37.56 26.2036 37.13C27.6481 35.96 27.6481 34.03 26.2036 32.86C25.6943 32.44 25.074 32.16 24.4166 32" stroke="#FF951D" stroke-width="1.5" stroke-linecap="round" stroke-linejoin="round"/>
<path d="M38.899 26C38.6003 26 38.381 25.9347 38.241 25.804C38.1103 25.664 38.045 25.4633 38.045 25.202C38.045 25.0433 38.087 24.8893 38.171 24.74C38.255 24.5907 38.3763 24.432 38.535 24.264L41.349 21.268C41.7783 20.82 42.0863 20.414 42.273 20.05C42.4597 19.6767 42.553 19.3033 42.553 18.93C42.553 18.4633 42.4037 18.1087 42.105 17.866C41.8157 17.6233 41.391 17.502 40.831 17.502C40.5137 17.502 40.1963 17.5487 39.879 17.642C39.5617 17.726 39.2397 17.8753 38.913 18.09C38.745 18.202 38.5863 18.2487 38.437 18.23C38.297 18.2113 38.171 18.1507 38.059 18.048C37.9563 17.9453 37.8863 17.8193 37.849 17.67C37.8117 17.5207 37.8163 17.3713 37.863 17.222C37.919 17.0633 38.031 16.928 38.199 16.816C38.6003 16.5453 39.0483 16.34 39.543 16.2C40.047 16.06 40.551 15.99 41.055 15.99C41.7643 15.99 42.3617 16.0973 42.847 16.312C43.3323 16.5267 43.701 16.8393 43.953 17.25C44.205 17.6607 44.331 18.16 44.331 18.748C44.331 19.14 44.2657 19.5227 44.135 19.896C44.0137 20.2693 43.8223 20.6473 43.561 21.03C43.309 21.4127 42.9777 21.8187 42.567 22.248L39.935 24.992V24.516H44.051C44.303 24.516 44.4943 24.5767 44.625 24.698C44.7557 24.8193 44.821 25.0013 44.821 25.244C44.821 25.4867 44.7557 25.6733 44.625 25.804C44.4943 25.9347 44.303 26 44.051 26H38.899ZM49.6315 26.14C48.4649 26.14 47.5735 25.7013 46.9575 24.824C46.3415 23.9373 46.0335 22.6773 46.0335 21.044C46.0335 19.9427 46.1689 19.0187 46.4395 18.272C46.7195 17.516 47.1255 16.9467 47.6575 16.564C48.1989 16.1813 48.8569 15.99 49.6315 15.99C50.8075 15.99 51.6989 16.4193 52.3055 17.278C52.9215 18.1367 53.2295 19.3873 53.2295 21.03C53.2295 22.122 53.0895 23.0507 52.8095 23.816C52.5389 24.572 52.1375 25.1507 51.6055 25.552C51.0735 25.944 50.4155 26.14 49.6315 26.14ZM49.6315 24.67C50.2662 24.67 50.7329 24.376 51.0315 23.788C51.3395 23.2 51.4935 22.2807 51.4935 21.03C51.4935 19.7793 51.3395 18.874 51.0315 18.314C50.7329 17.7447 50.2662 17.46 49.6315 17.46C49.0062 17.46 48.5395 17.7447 48.2315 18.314C47.9235 18.874 47.7695 19.7793 47.7695 21.03C47.7695 22.2807 47.9235 23.2 48.2315 23.788C48.5395 24.376 49.0062 24.67 49.6315 24.67Z" fill="#363333"/>
<path d="M38.573 43.06C38.421 43.06 38.301 43.016 38.213 42.928C38.125 42.832 38.081 42.708 38.081 42.556V35.02C38.081 34.876 38.125 34.76 38.213 34.672C38.309 34.584 38.433 34.54 38.585 34.54H42.953C43.097 34.54 43.209 34.576 43.289 34.648C43.369 34.72 43.409 34.824 43.409 34.96C43.409 35.088 43.369 35.188 43.289 35.26C43.209 35.332 43.097 35.368 42.953 35.368H39.053V38.284H42.713C42.857 38.284 42.969 38.32 43.049 38.392C43.129 38.464 43.169 38.568 43.169 38.704C43.169 38.832 43.129 38.932 43.049 39.004C42.969 39.076 42.857 39.112 42.713 39.112H39.053V42.556C39.053 42.708 39.009 42.832 38.921 42.928C38.841 43.016 38.725 43.06 38.573 43.06ZM46.9235 43.084C46.3715 43.084 45.8835 42.96 45.4595 42.712C45.0435 42.464 44.7195 42.112 44.4875 41.656C44.2635 41.192 44.1515 40.656 44.1515 40.048C44.1515 39.44 44.2635 38.908 44.4875 38.452C44.7195 37.988 45.0435 37.632 45.4595 37.384C45.8835 37.136 46.3715 37.012 46.9235 37.012C47.4755 37.012 47.9635 37.136 48.3875 37.384C48.8115 37.632 49.1355 37.988 49.3595 38.452C49.5915 38.908 49.7075 39.44 49.7075 40.048C49.7075 40.656 49.5915 41.192 49.3595 41.656C49.1355 42.112 48.8115 42.464 48.3875 42.712C47.9635 42.96 47.4755 43.084 46.9235 43.084ZM46.9235 42.28C47.4995 42.28 47.9395 42.092 48.2435 41.716C48.5555 41.332 48.7115 40.776 48.7115 40.048C48.7115 39.336 48.5555 38.788 48.2435 38.404C47.9315 38.012 47.4915 37.816 46.9235 37.816C46.3555 37.816 45.9155 38.012 45.6035 38.404C45.2915 38.788 45.1355 39.336 45.1355 40.048C45.1355 40.768 45.2875 41.32 45.5915 41.704C45.9035 42.088 46.3475 42.28 46.9235 42.28ZM51.6477 43.06C51.5037 43.06 51.3837 43.02 51.2877 42.94C51.1997 42.852 51.1557 42.732 51.1557 42.58V34.96C51.1557 34.808 51.1997 34.692 51.2877 34.612C51.3837 34.524 51.5037 34.48 51.6477 34.48C51.7837 34.48 51.8957 34.524 51.9837 34.612C52.0797 34.692 52.1277 34.808 52.1277 34.96V42.58C52.1277 42.732 52.0797 42.852 51.9837 42.94C51.8957 43.02 51.7837 43.06 51.6477 43.06ZM54.4368 43.06C54.2928 43.06 54.1728 43.02 54.0768 42.94C53.9888 42.852 53.9448 42.732 53.9448 42.58V34.96C53.9448 34.808 53.9888 34.692 54.0768 34.612C54.1728 34.524 54.2928 34.48 54.4368 34.48C54.5728 34.48 54.6848 34.524 54.7728 34.612C54.8688 34.692 54.9168 34.808 54.9168 34.96V42.58C54.9168 42.732 54.8688 42.852 54.7728 42.94C54.6848 43.02 54.5728 43.06 54.4368 43.06ZM59.1579 43.084C58.6059 43.084 58.1179 42.96 57.6939 42.712C57.2779 42.464 56.9539 42.112 56.7219 41.656C56.4979 41.192 56.3859 40.656 56.3859 40.048C56.3859 39.44 56.4979 38.908 56.7219 38.452C56.9539 37.988 57.2779 37.632 57.6939 37.384C58.1179 37.136 58.6059 37.012 59.1579 37.012C59.7099 37.012 60.1979 37.136 60.6219 37.384C61.0459 37.632 61.3699 37.988 61.5939 38.452C61.8259 38.908 61.9419 39.44 61.9419 40.048C61.9419 40.656 61.8259 41.192 61.5939 41.656C61.3699 42.112 61.0459 42.464 60.6219 42.712C60.1979 42.96 59.7099 43.084 59.1579 43.084ZM59.1579 42.28C59.7339 42.28 60.1739 42.092 60.4779 41.716C60.7899 41.332 60.9459 40.776 60.9459 40.048C60.9459 39.336 60.7899 38.788 60.4779 38.404C60.1659 38.012 59.7259 37.816 59.1579 37.816C58.5899 37.816 58.1499 38.012 57.8379 38.404C57.5259 38.788 57.3699 39.336 57.3699 40.048C57.3699 40.768 57.5219 41.32 57.8259 41.704C58.1379 42.088 58.5819 42.28 59.1579 42.28ZM71.3118 37.348C71.3918 37.156 71.5238 37.06 71.7078 37.06C71.8278 37.06 71.9358 37.1 72.0318 37.18C72.1278 37.26 72.1758 37.36 72.1758 37.48C72.1758 37.536 72.1638 37.596 72.1398 37.66L70.1478 42.7C70.0998 42.804 70.0278 42.888 69.9318 42.952C69.8438 43.008 69.7438 43.036 69.6318 43.036C69.5278 43.036 69.4278 43.008 69.3318 42.952C69.2438 42.888 69.1758 42.804 69.1278 42.7L67.4718 38.488L65.8278 42.7C65.7878 42.804 65.7198 42.888 65.6238 42.952C65.5278 43.008 65.4238 43.036 65.3118 43.036C65.2078 43.036 65.1078 43.008 65.0118 42.952C64.9158 42.888 64.8438 42.804 64.7958 42.7L62.8038 37.672C62.7798 37.608 62.7678 37.552 62.7678 37.504C62.7678 37.376 62.8198 37.268 62.9238 37.18C63.0358 37.092 63.1558 37.048 63.2838 37.048C63.4758 37.048 63.6118 37.144 63.6918 37.336L65.3358 41.764L67.0278 37.372C67.0758 37.268 67.1398 37.188 67.2198 37.132C67.3078 37.076 67.3998 37.048 67.4958 37.048C67.5998 37.048 67.6918 37.076 67.7718 37.132C67.8598 37.188 67.9238 37.268 67.9638 37.372L69.6558 41.752L71.3118 37.348ZM77.8751 41.644C77.9631 41.644 78.0391 41.68 78.103 41.752C78.1671 41.824 78.1991 41.916 78.1991 42.028C78.1991 42.228 78.0591 42.412 77.7791 42.58C77.4911 42.748 77.1871 42.876 76.8671 42.964C76.547 43.044 76.235 43.084 75.9311 43.084C75.027 43.084 74.311 42.816 73.783 42.28C73.263 41.744 73.003 41.004 73.003 40.06C73.003 39.46 73.119 38.932 73.351 38.476C73.583 38.012 73.907 37.652 74.323 37.396C74.747 37.14 75.227 37.012 75.7631 37.012C76.5231 37.012 77.1271 37.26 77.575 37.756C78.023 38.252 78.247 38.924 78.247 39.772C78.247 39.932 78.215 40.048 78.1511 40.12C78.087 40.192 77.983 40.228 77.8391 40.228H73.975C74.047 41.604 74.699 42.292 75.9311 42.292C76.2431 42.292 76.5111 42.252 76.7351 42.172C76.9591 42.084 77.1991 41.968 77.4551 41.824C77.6631 41.704 77.8031 41.644 77.8751 41.644ZM75.775 37.768C75.263 37.768 74.851 37.928 74.539 38.248C74.235 38.568 74.055 39.02 73.999 39.604H77.3951C77.3791 39.012 77.2311 38.56 76.9511 38.248C76.671 37.928 76.279 37.768 75.775 37.768ZM82.5712 37.036C82.9072 37.012 83.0752 37.148 83.0752 37.444C83.0752 37.572 83.0392 37.676 82.9672 37.756C82.8952 37.828 82.7712 37.872 82.5952 37.888L82.2352 37.924C81.6992 37.972 81.2992 38.164 81.0352 38.5C80.7792 38.828 80.6512 39.216 80.6512 39.664V42.58C80.6512 42.74 80.6072 42.86 80.5192 42.94C80.4312 43.02 80.3152 43.06 80.1712 43.06C80.0272 43.06 79.9072 43.02 79.8112 42.94C79.7232 42.852 79.6792 42.732 79.6792 42.58V37.516C79.6792 37.364 79.7272 37.248 79.8232 37.168C79.9192 37.08 80.0352 37.036 80.1712 37.036C80.2992 37.036 80.4072 37.08 80.4952 37.168C80.5832 37.248 80.6272 37.36 80.6272 37.504V38.176C80.7952 37.824 81.0312 37.556 81.3352 37.372C81.6472 37.188 82.0032 37.08 82.4032 37.048L82.5712 37.036ZM85.819 43.084C85.451 43.084 85.099 43.04 84.763 42.952C84.435 42.864 84.143 42.74 83.887 42.58C83.743 42.484 83.639 42.396 83.575 42.316C83.519 42.228 83.491 42.124 83.491 42.004C83.491 41.9 83.519 41.816 83.575 41.752C83.639 41.68 83.719 41.644 83.815 41.644C83.911 41.644 84.051 41.704 84.235 41.824C84.475 41.968 84.711 42.084 84.943 42.172C85.183 42.252 85.479 42.292 85.831 42.292C86.263 42.292 86.599 42.216 86.839 42.064C87.079 41.912 87.199 41.692 87.199 41.404C87.199 41.228 87.155 41.088 87.0671 40.984C86.9791 40.872 86.827 40.776 86.611 40.696C86.3951 40.608 86.0791 40.52 85.663 40.432C84.959 40.28 84.455 40.076 84.151 39.82C83.847 39.564 83.695 39.216 83.695 38.776C83.695 38.432 83.791 38.128 83.983 37.864C84.175 37.6 84.439 37.392 84.775 37.24C85.119 37.088 85.507 37.012 85.939 37.012C86.251 37.012 86.551 37.056 86.839 37.144C87.1351 37.224 87.3951 37.34 87.6191 37.492C87.891 37.684 88.027 37.884 88.027 38.092C88.027 38.196 87.995 38.284 87.9311 38.356C87.867 38.428 87.791 38.464 87.7031 38.464C87.607 38.464 87.463 38.396 87.271 38.26C87.047 38.116 86.835 38.004 86.635 37.924C86.435 37.844 86.187 37.804 85.891 37.804C85.515 37.804 85.211 37.888 84.979 38.056C84.755 38.224 84.643 38.448 84.643 38.728C84.643 38.904 84.683 39.048 84.763 39.16C84.851 39.264 84.991 39.36 85.183 39.448C85.383 39.528 85.667 39.608 86.035 39.688C86.579 39.808 86.9991 39.94 87.2951 40.084C87.599 40.228 87.815 40.404 87.943 40.612C88.071 40.82 88.135 41.084 88.135 41.404C88.135 41.908 87.923 42.316 87.499 42.628C87.075 42.932 86.515 43.084 85.819 43.084Z" fill="#FF951D"/>
</svg>
