<svg width="100" height="59" viewBox="0 0 100 59" fill="none" xmlns="http://www.w3.org/2000/svg">
<rect width="100" height="59" rx="18" fill="#FFF5E9"/>
<path d="M18.5184 30C21.0753 30 23.1481 27.7614 23.1481 25C23.1481 22.2386 21.0753 20 18.5184 20C15.9615 20 13.8888 22.2386 13.8888 25C13.8888 27.7614 15.9615 30 18.5184 30Z" stroke="#FF951D" stroke-width="1.5" stroke-linecap="round" stroke-linejoin="round"/>
<path opacity="0.4" d="M10.5648 40C10.5648 36.13 14.1296 33 18.5185 33C19.4074 33 20.2685 33.13 21.0741 33.37" stroke="#FF951D" stroke-width="1.5" stroke-linecap="round" stroke-linejoin="round"/>
<path d="M27.7778 36C27.7778 36.75 27.5833 37.46 27.2407 38.06C27.0463 38.42 26.7963 38.74 26.5093 39C25.8611 39.63 25.0092 40 24.0741 40C22.7222 40 21.5463 39.22 20.9074 38.06C20.5648 37.46 20.3704 36.75 20.3704 36C20.3704 34.74 20.9074 33.61 21.7593 32.88C22.3981 32.33 23.2037 32 24.0741 32C26.1204 32 27.7778 33.79 27.7778 36Z" stroke="#FF951D" stroke-width="1.5" stroke-miterlimit="10" stroke-linecap="round" stroke-linejoin="round"/>
<path d="M22.6296 36L23.5463 36.99L25.5185 35.02" stroke="#FF951D" stroke-width="1.5" stroke-linecap="round" stroke-linejoin="round"/>
<path d="M39.4692 26.14C38.9745 26.14 38.4705 26.0747 37.9572 25.944C37.4438 25.8133 36.9725 25.6127 36.5432 25.342C36.3658 25.23 36.2445 25.0993 36.1792 24.95C36.1232 24.7913 36.1092 24.6373 36.1372 24.488C36.1745 24.3293 36.2445 24.1987 36.3472 24.096C36.4592 23.984 36.5898 23.9187 36.7392 23.9C36.8978 23.8813 37.0705 23.9233 37.2572 24.026C37.6025 24.222 37.9525 24.3713 38.3072 24.474C38.6618 24.5767 39.0398 24.628 39.4412 24.628C39.8332 24.628 40.1692 24.558 40.4492 24.418C40.7292 24.278 40.9438 24.082 41.0932 23.83C41.2425 23.578 41.3172 23.284 41.3172 22.948C41.3172 22.4253 41.1585 22.0053 40.8412 21.688C40.5238 21.3613 40.0898 21.198 39.5392 21.198C39.2405 21.198 38.9512 21.2493 38.6712 21.352C38.3912 21.4453 38.1158 21.6133 37.8452 21.856C37.7612 21.9307 37.6538 22.0053 37.5232 22.08C37.3925 22.1453 37.2525 22.178 37.1032 22.178C36.8698 22.178 36.6925 22.1173 36.5712 21.996C36.4498 21.8747 36.3892 21.7067 36.3892 21.492V16.914C36.3892 16.662 36.4545 16.4707 36.5852 16.34C36.7252 16.2 36.9212 16.13 37.1732 16.13H41.7792C42.0312 16.13 42.2225 16.1953 42.3532 16.326C42.4932 16.4473 42.5632 16.6293 42.5632 16.872C42.5632 17.1053 42.4932 17.2873 42.3532 17.418C42.2225 17.5487 42.0312 17.614 41.7792 17.614H38.1392V20.75H37.6772C37.9198 20.4233 38.2418 20.1713 38.6432 19.994C39.0445 19.8167 39.4832 19.728 39.9592 19.728C40.5845 19.728 41.1258 19.8633 41.5832 20.134C42.0498 20.3953 42.4092 20.764 42.6612 21.24C42.9225 21.7067 43.0532 22.2527 43.0532 22.878C43.0532 23.522 42.9085 24.0913 42.6192 24.586C42.3298 25.0713 41.9145 25.454 41.3732 25.734C40.8412 26.0047 40.2065 26.14 39.4692 26.14Z" fill="#363333"/>
<path d="M36.7212 43.06C36.5692 43.06 36.4492 43.016 36.3612 42.928C36.2732 42.832 36.2292 42.708 36.2292 42.556V35.02C36.2292 34.876 36.2732 34.76 36.3612 34.672C36.4572 34.584 36.5812 34.54 36.7332 34.54H41.1012C41.2452 34.54 41.3572 34.576 41.4372 34.648C41.5172 34.72 41.5572 34.824 41.5572 34.96C41.5572 35.088 41.5172 35.188 41.4372 35.26C41.3572 35.332 41.2452 35.368 41.1012 35.368H37.2012V38.284H40.8612C41.0052 38.284 41.1172 38.32 41.1972 38.392C41.2772 38.464 41.3172 38.568 41.3172 38.704C41.3172 38.832 41.2772 38.932 41.1972 39.004C41.1172 39.076 41.0052 39.112 40.8612 39.112H37.2012V42.556C37.2012 42.708 37.1572 42.832 37.0692 42.928C36.9892 43.016 36.8732 43.06 36.7212 43.06ZM45.0717 43.084C44.5197 43.084 44.0317 42.96 43.6077 42.712C43.1917 42.464 42.8677 42.112 42.6357 41.656C42.4117 41.192 42.2997 40.656 42.2997 40.048C42.2997 39.44 42.4117 38.908 42.6357 38.452C42.8677 37.988 43.1917 37.632 43.6077 37.384C44.0317 37.136 44.5197 37.012 45.0717 37.012C45.6237 37.012 46.1117 37.136 46.5357 37.384C46.9597 37.632 47.2837 37.988 47.5077 38.452C47.7397 38.908 47.8557 39.44 47.8557 40.048C47.8557 40.656 47.7397 41.192 47.5077 41.656C47.2837 42.112 46.9597 42.464 46.5357 42.712C46.1117 42.96 45.6237 43.084 45.0717 43.084ZM45.0717 42.28C45.6477 42.28 46.0877 42.092 46.3917 41.716C46.7037 41.332 46.8597 40.776 46.8597 40.048C46.8597 39.336 46.7037 38.788 46.3917 38.404C46.0797 38.012 45.6397 37.816 45.0717 37.816C44.5037 37.816 44.0637 38.012 43.7517 38.404C43.4397 38.788 43.2837 39.336 43.2837 40.048C43.2837 40.768 43.4357 41.32 43.7397 41.704C44.0517 42.088 44.4957 42.28 45.0717 42.28ZM49.7959 43.06C49.6519 43.06 49.5319 43.02 49.4359 42.94C49.3479 42.852 49.3039 42.732 49.3039 42.58V34.96C49.3039 34.808 49.3479 34.692 49.4359 34.612C49.5319 34.524 49.6519 34.48 49.7959 34.48C49.9319 34.48 50.0439 34.524 50.1319 34.612C50.2279 34.692 50.2759 34.808 50.2759 34.96V42.58C50.2759 42.732 50.2279 42.852 50.1319 42.94C50.0439 43.02 49.9319 43.06 49.7959 43.06ZM52.585 43.06C52.441 43.06 52.321 43.02 52.225 42.94C52.137 42.852 52.093 42.732 52.093 42.58V34.96C52.093 34.808 52.137 34.692 52.225 34.612C52.321 34.524 52.441 34.48 52.585 34.48C52.721 34.48 52.833 34.524 52.921 34.612C53.017 34.692 53.065 34.808 53.065 34.96V42.58C53.065 42.732 53.017 42.852 52.921 42.94C52.833 43.02 52.721 43.06 52.585 43.06ZM57.3061 43.084C56.7541 43.084 56.2661 42.96 55.8421 42.712C55.4261 42.464 55.1021 42.112 54.8701 41.656C54.6461 41.192 54.5341 40.656 54.5341 40.048C54.5341 39.44 54.6461 38.908 54.8701 38.452C55.1021 37.988 55.4261 37.632 55.8421 37.384C56.2661 37.136 56.7541 37.012 57.3061 37.012C57.8581 37.012 58.3461 37.136 58.7701 37.384C59.1941 37.632 59.5181 37.988 59.7421 38.452C59.9741 38.908 60.0901 39.44 60.0901 40.048C60.0901 40.656 59.9741 41.192 59.7421 41.656C59.5181 42.112 59.1941 42.464 58.7701 42.712C58.3461 42.96 57.8581 43.084 57.3061 43.084ZM57.3061 42.28C57.8821 42.28 58.3221 42.092 58.6261 41.716C58.9381 41.332 59.0941 40.776 59.0941 40.048C59.0941 39.336 58.9381 38.788 58.6261 38.404C58.3141 38.012 57.8741 37.816 57.3061 37.816C56.7381 37.816 56.2981 38.012 55.9861 38.404C55.6741 38.788 55.5181 39.336 55.5181 40.048C55.5181 40.768 55.6701 41.32 55.9741 41.704C56.2861 42.088 56.7301 42.28 57.3061 42.28ZM69.46 37.348C69.54 37.156 69.672 37.06 69.856 37.06C69.976 37.06 70.084 37.1 70.18 37.18C70.276 37.26 70.324 37.36 70.324 37.48C70.324 37.536 70.312 37.596 70.288 37.66L68.296 42.7C68.248 42.804 68.176 42.888 68.08 42.952C67.992 43.008 67.892 43.036 67.78 43.036C67.676 43.036 67.576 43.008 67.48 42.952C67.392 42.888 67.324 42.804 67.276 42.7L65.62 38.488L63.976 42.7C63.936 42.804 63.868 42.888 63.772 42.952C63.676 43.008 63.572 43.036 63.46 43.036C63.356 43.036 63.256 43.008 63.16 42.952C63.064 42.888 62.992 42.804 62.944 42.7L60.952 37.672C60.928 37.608 60.916 37.552 60.916 37.504C60.916 37.376 60.968 37.268 61.072 37.18C61.184 37.092 61.304 37.048 61.432 37.048C61.624 37.048 61.76 37.144 61.84 37.336L63.484 41.764L65.176 37.372C65.224 37.268 65.288 37.188 65.368 37.132C65.456 37.076 65.548 37.048 65.644 37.048C65.748 37.048 65.84 37.076 65.92 37.132C66.008 37.188 66.072 37.268 66.112 37.372L67.804 41.752L69.46 37.348ZM72.0616 43.06C71.9176 43.06 71.7976 43.02 71.7016 42.94C71.6136 42.852 71.5696 42.732 71.5696 42.58V37.516C71.5696 37.364 71.6136 37.248 71.7016 37.168C71.7976 37.08 71.9176 37.036 72.0616 37.036C72.2056 37.036 72.3216 37.08 72.4096 37.168C72.4976 37.248 72.5416 37.364 72.5416 37.516V42.58C72.5416 42.74 72.4976 42.86 72.4096 42.94C72.3216 43.02 72.2056 43.06 72.0616 43.06ZM72.0616 35.776C71.8696 35.776 71.7136 35.72 71.5936 35.608C71.4736 35.496 71.4136 35.348 71.4136 35.164C71.4136 34.988 71.4736 34.844 71.5936 34.732C71.7136 34.62 71.8696 34.564 72.0616 34.564C72.2536 34.564 72.4096 34.62 72.5296 34.732C72.6496 34.844 72.7096 34.988 72.7096 35.164C72.7096 35.348 72.6496 35.496 72.5296 35.608C72.4096 35.72 72.2536 35.776 72.0616 35.776ZM77.2986 37.012C78.6986 37.012 79.3986 37.784 79.3986 39.328V42.58C79.3986 42.732 79.3546 42.852 79.2666 42.94C79.1866 43.02 79.0706 43.06 78.9186 43.06C78.7666 43.06 78.6466 43.02 78.5586 42.94C78.4706 42.852 78.4266 42.732 78.4266 42.58V39.388C78.4266 38.844 78.3186 38.448 78.1026 38.2C77.8946 37.952 77.5586 37.828 77.0946 37.828C76.5586 37.828 76.1306 37.992 75.8106 38.32C75.4906 38.648 75.3306 39.092 75.3306 39.652V42.58C75.3306 42.732 75.2866 42.852 75.1986 42.94C75.1186 43.02 75.0026 43.06 74.8506 43.06C74.6986 43.06 74.5786 43.02 74.4906 42.94C74.4026 42.852 74.3586 42.732 74.3586 42.58V37.516C74.3586 37.372 74.4026 37.256 74.4906 37.168C74.5786 37.08 74.6986 37.036 74.8506 37.036C74.9946 37.036 75.1066 37.08 75.1866 37.168C75.2746 37.256 75.3186 37.368 75.3186 37.504V38.116C75.5106 37.756 75.7786 37.484 76.1226 37.3C76.4666 37.108 76.8586 37.012 77.2986 37.012ZM85.9189 37.036C86.0709 37.036 86.1909 37.08 86.2789 37.168C86.3669 37.256 86.4109 37.372 86.4109 37.516V42.604C86.4109 43.476 86.1869 44.132 85.7389 44.572C85.2909 45.02 84.6269 45.244 83.7469 45.244C82.8909 45.244 82.1789 45.076 81.6109 44.74C81.3229 44.58 81.1789 44.396 81.1789 44.188C81.1789 44.076 81.2069 43.984 81.2629 43.912C81.3269 43.84 81.4069 43.804 81.5029 43.804C81.5829 43.804 81.7269 43.86 81.9349 43.972C82.2149 44.116 82.4909 44.232 82.7629 44.32C83.0349 44.408 83.3589 44.452 83.7349 44.452C84.3029 44.452 84.7309 44.3 85.0189 43.996C85.3069 43.7 85.4509 43.264 85.4509 42.688V41.656C85.2829 42.032 85.0229 42.32 84.6709 42.52C84.3269 42.72 83.9189 42.82 83.4469 42.82C82.9349 42.82 82.4789 42.7 82.0789 42.46C81.6869 42.22 81.3789 41.88 81.1549 41.44C80.9389 41 80.8309 40.492 80.8309 39.916C80.8309 39.34 80.9389 38.832 81.1549 38.392C81.3789 37.952 81.6869 37.612 82.0789 37.372C82.4789 37.132 82.9349 37.012 83.4469 37.012C83.9109 37.012 84.3149 37.112 84.6589 37.312C85.0029 37.512 85.2629 37.796 85.4389 38.164V37.516C85.4389 37.372 85.4789 37.256 85.5589 37.168C85.6469 37.08 85.7669 37.036 85.9189 37.036ZM83.6389 42.016C84.1989 42.016 84.6389 41.832 84.9589 41.464C85.2789 41.088 85.4389 40.572 85.4389 39.916C85.4389 39.268 85.2789 38.76 84.9589 38.392C84.6469 38.016 84.2069 37.828 83.6389 37.828C83.0709 37.828 82.6229 38.016 82.2949 38.392C81.9749 38.76 81.8149 39.268 81.8149 39.916C81.8149 40.572 81.9749 41.088 82.2949 41.464C82.6229 41.832 83.0709 42.016 83.6389 42.016Z" fill="#FF951D"/>
</svg>
