<svg width="114" height="37" viewBox="0 0 114 37" fill="none" xmlns="http://www.w3.org/2000/svg">
<path d="M0 33.8043C0 15.1347 15.1347 0 33.8043 0H114V3.19565C114 21.8653 98.8653 37 80.1956 37H0V33.8043Z" fill="#D20653"/>
<path d="M25.8335 23C25.6975 23 25.5815 22.96 25.4855 22.88C25.3975 22.792 25.3535 22.68 25.3535 22.544V14.984C25.3535 14.832 25.3975 14.712 25.4855 14.624C25.5735 14.528 25.6935 14.48 25.8455 14.48C25.9975 14.48 26.1175 14.528 26.2055 14.624C26.2935 14.712 26.3375 14.832 26.3375 14.984V22.16H30.2135C30.3575 22.16 30.4695 22.196 30.5495 22.268C30.6295 22.34 30.6695 22.444 30.6695 22.58C30.6695 22.716 30.6295 22.82 30.5495 22.892C30.4695 22.964 30.3575 23 30.2135 23H25.8335ZM32.1819 23.06C32.0379 23.06 31.9179 23.02 31.8219 22.94C31.7339 22.852 31.6899 22.732 31.6899 22.58V17.516C31.6899 17.364 31.7339 17.248 31.8219 17.168C31.9179 17.08 32.0379 17.036 32.1819 17.036C32.3259 17.036 32.4419 17.08 32.5299 17.168C32.6179 17.248 32.6619 17.364 32.6619 17.516V22.58C32.6619 22.74 32.6179 22.86 32.5299 22.94C32.4419 23.02 32.3259 23.06 32.1819 23.06ZM32.1819 15.776C31.9899 15.776 31.8339 15.72 31.7139 15.608C31.5939 15.496 31.5339 15.348 31.5339 15.164C31.5339 14.988 31.5939 14.844 31.7139 14.732C31.8339 14.62 31.9899 14.564 32.1819 14.564C32.3739 14.564 32.5299 14.62 32.6499 14.732C32.7699 14.844 32.8299 14.988 32.8299 15.164C32.8299 15.348 32.7699 15.496 32.6499 15.608C32.5299 15.72 32.3739 15.776 32.1819 15.776ZM38.691 17.336C38.779 17.144 38.919 17.048 39.111 17.048C39.231 17.048 39.339 17.088 39.435 17.168C39.531 17.248 39.579 17.348 39.579 17.468C39.579 17.54 39.563 17.604 39.531 17.66L37.191 22.7C37.143 22.804 37.071 22.888 36.975 22.952C36.879 23.008 36.775 23.036 36.663 23.036C36.559 23.036 36.459 23.008 36.363 22.952C36.267 22.888 36.191 22.804 36.135 22.7L33.807 17.66C33.775 17.604 33.759 17.544 33.759 17.48C33.759 17.36 33.811 17.256 33.915 17.168C34.027 17.08 34.147 17.036 34.275 17.036C34.355 17.036 34.431 17.06 34.503 17.108C34.583 17.156 34.643 17.224 34.683 17.312L36.687 21.812L38.691 17.336ZM45.0967 21.644C45.1847 21.644 45.2607 21.68 45.3247 21.752C45.3887 21.824 45.4207 21.916 45.4207 22.028C45.4207 22.228 45.2807 22.412 45.0007 22.58C44.7127 22.748 44.4087 22.876 44.0887 22.964C43.7687 23.044 43.4567 23.084 43.1527 23.084C42.2487 23.084 41.5327 22.816 41.0047 22.28C40.4847 21.744 40.2247 21.004 40.2247 20.06C40.2247 19.46 40.3407 18.932 40.5727 18.476C40.8047 18.012 41.1287 17.652 41.5447 17.396C41.9687 17.14 42.4487 17.012 42.9847 17.012C43.7447 17.012 44.3487 17.26 44.7967 17.756C45.2447 18.252 45.4687 18.924 45.4687 19.772C45.4687 19.932 45.4367 20.048 45.3727 20.12C45.3087 20.192 45.2047 20.228 45.0607 20.228H41.1967C41.2687 21.604 41.9207 22.292 43.1527 22.292C43.4647 22.292 43.7327 22.252 43.9567 22.172C44.1807 22.084 44.4207 21.968 44.6767 21.824C44.8847 21.704 45.0247 21.644 45.0967 21.644ZM42.9967 17.768C42.4847 17.768 42.0727 17.928 41.7607 18.248C41.4567 18.568 41.2767 19.02 41.2207 19.604H44.6167C44.6007 19.012 44.4527 18.56 44.1727 18.248C43.8927 17.928 43.5007 17.768 42.9967 17.768ZM57.4226 22.436C57.4546 22.5 57.4706 22.568 57.4706 22.64C57.4706 22.76 57.4226 22.86 57.3266 22.94C57.2386 23.02 57.1306 23.06 57.0026 23.06C56.8026 23.06 56.6626 22.964 56.5826 22.772L55.7306 20.828H51.2066L50.3426 22.772C50.2626 22.964 50.1226 23.06 49.9226 23.06C49.7946 23.06 49.6826 23.02 49.5866 22.94C49.4906 22.852 49.4426 22.748 49.4426 22.628C49.4426 22.564 49.4586 22.5 49.4906 22.436L52.9226 14.804C52.9706 14.692 53.0426 14.608 53.1386 14.552C53.2346 14.496 53.3386 14.468 53.4506 14.468C53.5706 14.468 53.6786 14.5 53.7746 14.564C53.8706 14.62 53.9426 14.7 53.9906 14.804L57.4226 22.436ZM55.3706 20.012L53.4626 15.704L51.5666 20.012H55.3706ZM63.1534 17.036C63.3054 17.036 63.4214 17.08 63.5014 17.168C63.5894 17.256 63.6334 17.372 63.6334 17.516V22.592C63.6334 22.728 63.5894 22.84 63.5014 22.928C63.4214 23.016 63.3054 23.06 63.1534 23.06C63.0094 23.06 62.8934 23.02 62.8054 22.94C62.7254 22.852 62.6854 22.74 62.6854 22.604V22.004C62.5014 22.356 62.2414 22.624 61.9054 22.808C61.5774 22.992 61.2054 23.084 60.7894 23.084C60.0934 23.084 59.5694 22.892 59.2174 22.508C58.8654 22.116 58.6894 21.54 58.6894 20.78V17.516C58.6894 17.372 58.7334 17.256 58.8214 17.168C58.9094 17.08 59.0294 17.036 59.1814 17.036C59.3334 17.036 59.4494 17.08 59.5294 17.168C59.6174 17.256 59.6614 17.372 59.6614 17.516V20.756C59.6614 21.276 59.7654 21.66 59.9734 21.908C60.1814 22.148 60.5094 22.268 60.9574 22.268C61.4694 22.268 61.8814 22.104 62.1934 21.776C62.5054 21.44 62.6614 21 62.6614 20.456V17.516C62.6614 17.372 62.7054 17.256 62.7934 17.168C62.8814 17.08 63.0014 17.036 63.1534 17.036ZM67.8519 23.084C67.3079 23.084 66.8239 22.96 66.3999 22.712C65.9839 22.464 65.6599 22.112 65.4279 21.656C65.2039 21.2 65.0919 20.672 65.0919 20.072C65.0919 19.472 65.2079 18.94 65.4399 18.476C65.6799 18.012 66.0119 17.652 66.4359 17.396C66.8599 17.14 67.3479 17.012 67.8999 17.012C68.2039 17.012 68.5039 17.056 68.7999 17.144C69.1039 17.224 69.3679 17.344 69.5919 17.504C69.7359 17.6 69.8359 17.696 69.8919 17.792C69.9559 17.88 69.9879 17.98 69.9879 18.092C69.9879 18.204 69.9559 18.296 69.8919 18.368C69.8359 18.44 69.7599 18.476 69.6639 18.476C69.6079 18.476 69.5479 18.46 69.4839 18.428C69.4199 18.396 69.3639 18.364 69.3159 18.332C69.2759 18.3 69.2479 18.28 69.2319 18.272C69.0239 18.136 68.8239 18.028 68.6319 17.948C68.4479 17.868 68.2199 17.828 67.9479 17.828C67.3639 17.828 66.9079 18.028 66.5799 18.428C66.2599 18.82 66.0999 19.368 66.0999 20.072C66.0999 20.776 66.2599 21.32 66.5799 21.704C66.9079 22.088 67.3639 22.28 67.9479 22.28C68.2199 22.28 68.4519 22.24 68.6439 22.16C68.8439 22.08 69.0439 21.972 69.2439 21.836C69.3319 21.78 69.4159 21.732 69.4959 21.692C69.5759 21.652 69.6439 21.632 69.6999 21.632C69.7879 21.632 69.8599 21.668 69.9159 21.74C69.9799 21.812 70.0119 21.904 70.0119 22.016C70.0119 22.12 69.9839 22.216 69.9279 22.304C69.8719 22.384 69.7679 22.476 69.6159 22.58C69.3919 22.732 69.1199 22.856 68.7999 22.952C68.4879 23.04 68.1719 23.084 67.8519 23.084ZM73.8938 22.292C74.1738 22.316 74.3138 22.444 74.3138 22.676C74.3138 22.812 74.2618 22.916 74.1578 22.988C74.0618 23.052 73.9138 23.076 73.7138 23.06L73.3898 23.036C72.7498 22.988 72.2778 22.796 71.9738 22.46C71.6698 22.124 71.5178 21.616 71.5178 20.936V17.924H70.7138C70.5778 17.924 70.4698 17.892 70.3898 17.828C70.3178 17.756 70.2818 17.664 70.2818 17.552C70.2818 17.432 70.3178 17.336 70.3898 17.264C70.4698 17.192 70.5778 17.156 70.7138 17.156H71.5178V15.8C71.5178 15.648 71.5618 15.532 71.6498 15.452C71.7378 15.364 71.8578 15.32 72.0098 15.32C72.1538 15.32 72.2698 15.364 72.3578 15.452C72.4458 15.532 72.4898 15.648 72.4898 15.8V17.156H73.8218C73.9498 17.156 74.0498 17.192 74.1218 17.264C74.2018 17.336 74.2418 17.432 74.2418 17.552C74.2418 17.664 74.2018 17.756 74.1218 17.828C74.0498 17.892 73.9498 17.924 73.8218 17.924H72.4898V20.984C72.4898 21.424 72.5778 21.744 72.7538 21.944C72.9378 22.136 73.2098 22.244 73.5698 22.268L73.8938 22.292ZM75.764 23.06C75.62 23.06 75.5 23.02 75.404 22.94C75.316 22.852 75.272 22.732 75.272 22.58V17.516C75.272 17.364 75.316 17.248 75.404 17.168C75.5 17.08 75.62 17.036 75.764 17.036C75.908 17.036 76.024 17.08 76.112 17.168C76.2 17.248 76.244 17.364 76.244 17.516V22.58C76.244 22.74 76.2 22.86 76.112 22.94C76.024 23.02 75.908 23.06 75.764 23.06ZM75.764 15.776C75.572 15.776 75.416 15.72 75.296 15.608C75.176 15.496 75.116 15.348 75.116 15.164C75.116 14.988 75.176 14.844 75.296 14.732C75.416 14.62 75.572 14.564 75.764 14.564C75.956 14.564 76.112 14.62 76.232 14.732C76.352 14.844 76.412 14.988 76.412 15.164C76.412 15.348 76.352 15.496 76.232 15.608C76.112 15.72 75.956 15.776 75.764 15.776ZM80.485 23.084C79.933 23.084 79.445 22.96 79.021 22.712C78.605 22.464 78.281 22.112 78.049 21.656C77.825 21.192 77.713 20.656 77.713 20.048C77.713 19.44 77.825 18.908 78.049 18.452C78.281 17.988 78.605 17.632 79.021 17.384C79.445 17.136 79.933 17.012 80.485 17.012C81.037 17.012 81.525 17.136 81.949 17.384C82.373 17.632 82.697 17.988 82.921 18.452C83.153 18.908 83.269 19.44 83.269 20.048C83.269 20.656 83.153 21.192 82.921 21.656C82.697 22.112 82.373 22.464 81.949 22.712C81.525 22.96 81.037 23.084 80.485 23.084ZM80.485 22.28C81.061 22.28 81.501 22.092 81.805 21.716C82.117 21.332 82.273 20.776 82.273 20.048C82.273 19.336 82.117 18.788 81.805 18.404C81.493 18.012 81.053 17.816 80.485 17.816C79.917 17.816 79.477 18.012 79.165 18.404C78.853 18.788 78.697 19.336 78.697 20.048C78.697 20.768 78.849 21.32 79.153 21.704C79.465 22.088 79.909 22.28 80.485 22.28ZM87.6573 17.012C89.0573 17.012 89.7573 17.784 89.7573 19.328V22.58C89.7573 22.732 89.7133 22.852 89.6253 22.94C89.5453 23.02 89.4293 23.06 89.2773 23.06C89.1253 23.06 89.0053 23.02 88.9173 22.94C88.8293 22.852 88.7853 22.732 88.7853 22.58V19.388C88.7853 18.844 88.6773 18.448 88.4613 18.2C88.2533 17.952 87.9173 17.828 87.4533 17.828C86.9173 17.828 86.4893 17.992 86.1693 18.32C85.8493 18.648 85.6893 19.092 85.6893 19.652V22.58C85.6893 22.732 85.6453 22.852 85.5573 22.94C85.4773 23.02 85.3613 23.06 85.2093 23.06C85.0573 23.06 84.9373 23.02 84.8493 22.94C84.7613 22.852 84.7173 22.732 84.7173 22.58V17.516C84.7173 17.372 84.7613 17.256 84.8493 17.168C84.9373 17.08 85.0573 17.036 85.2093 17.036C85.3533 17.036 85.4653 17.08 85.5453 17.168C85.6333 17.256 85.6773 17.368 85.6773 17.504V18.116C85.8693 17.756 86.1373 17.484 86.4813 17.3C86.8253 17.108 87.2173 17.012 87.6573 17.012Z" fill="white"/>
</svg>
